<svg width="47" height="38" viewBox="0 0 47 38" fill="none" xmlns="http://www.w3.org/2000/svg"><path d="M7.455 7.518V2.514c0-.346-.013-.706 0-1.052C7.467.396 7.848 0 8.904 0H20.57c8.056.012 16.125 0 24.181 0 .332 0 .651 0 .983.012.872.038 1.253.434 1.253 1.313v15.05c0 5.536 0 11.06-.013 16.596-.012 2.936-2.026 5.017-4.924 5.017C32.005 38 21.959 38 11.913 38H5.28C2.235 38 0 35.709 0 32.637c.012-7.469.012-14.938.012-22.406 0-.47-.012-.954.013-1.425.024-.879.417-1.263 1.314-1.275 1.756-.013 3.524 0 5.28 0 .246-.013.504-.013.836-.013zm1.572 28.215h32.975c1.645 0 2.763-1.127 2.763-2.811V2.329H9.715v.718c0 9.116.024 18.244 0 27.36 0 1.772.294 3.605-.688 5.326zM2.26 9.834v5.723c0 5.796 0 11.593.012 17.39 0 1.548 1.339 2.811 2.862 2.786 1.375-.024 2.308-1.114 2.308-2.724 0-7.506 0-15.025.013-22.53 0-.211-.025-.434-.037-.645H2.26z" fill="#67717D"/><path d="M13.067 12.448v-5.45c0-.954.405-1.362 1.339-1.362h8.904c.908 0 1.314.408 1.314 1.325v10.9c0 .904-.406 1.325-1.314 1.325-2.985.012-5.969.012-8.966 0-.872 0-1.277-.409-1.277-1.288v-5.45zm2.26 4.422h7.037V7.952h-7.037v8.918zm-2.223 13.612v-2.28h.725c8.965 0 17.93 0 26.895-.024.59 0 .725.198.713.743-.025 1.548 0 1.548-1.548 1.548H13.853c-.233.013-.479.013-.749.013zm0-5.673v-2.23h1.916c8.572 0 17.144.013 25.717-.012.54 0 .736.136.687.694-.049.508-.012 1.015-.012 1.548H13.104zM34.682 7.902c-2.051 0-4.09-.012-6.14.013-.455 0-.602-.149-.602-.607-.013-1.672-.025-1.672 1.62-1.672 3.722 0 7.443.012 11.164 0 .54 0 .7.16.688.693-.012 1.573.012 1.573-1.535 1.573-1.707.013-3.451 0-5.195 0zm-.025 5.661c-2.026 0-4.052-.013-6.079.012-.503.012-.614-.161-.626-.644-.012-1.635-.025-1.635 1.596-1.635 3.722 0 7.443.012 11.164-.012.577 0 .725.173.725.73-.025 1.536 0 1.536-1.511 1.549h-5.269zm.013 5.623c-2.027 0-4.053-.013-6.08.012-.478 0-.638-.136-.638-.631 0-1.648-.012-1.648 1.633-1.648 3.71 0 7.406 0 11.115-.012.552 0 .749.124.737.718-.025 1.573 0 1.573-1.548 1.573-1.744 0-3.475 0-5.22-.012 0 .012 0 .012 0 0z" fill="#67717D"/></svg>