<svg width="44" height="44" viewBox="0 0 44 44" fill="none" xmlns="http://www.w3.org/2000/svg"><path d="M24.855 38.427H10.064c-2.534 0-4.292-1.767-4.292-4.315V4.43C5.772 1.757 7.509 0 10.167 0h29.478C42.231 0 44 1.778 44 4.377c.01 9.877.01 19.754.01 29.631 0 2.672-1.748 4.42-4.416 4.42-4.913.01-9.826 0-14.74 0zm16.3-19.234c0-4.939-.01-9.877 0-14.816 0-.54-.103-1.03-.589-1.29-.29-.155-.652-.217-.983-.217-9.826-.01-19.652-.01-29.467-.01-1.024 0-1.52.488-1.531 1.528-.01 1.122 0 2.256 0 3.379v26.19c0 1.185.465 1.642 1.624 1.642 9.774 0 19.538 0 29.312.01 1.148 0 1.624-.488 1.624-1.653.01-4.928.01-9.845.01-14.763z" fill="#F9A536"/><path d="M4.096 5.573v2.765c-1.148.489-1.252.655-1.252 1.924 0 9.721 0 19.442-.01 29.163 0 .489-.041 1.03.393 1.331.3.218.714.374 1.076.374 6.62.021 13.24.01 19.859.021h9.67c.89 0 1.19-.218 1.542-1.019.051-.124.238-.26.362-.26.806-.02 1.613-.01 2.482-.01-.01 1.268-.486 2.277-1.386 3.088-.838.759-1.84 1.05-2.948 1.05-8.274 0-16.549 0-24.823-.01H4.303C1.789 43.98 0 42.19 0 39.664V9.887C0 7.683 1.386 6.01 3.486 5.625c.186-.031.372-.031.61-.052z" fill="#F9A536"/><path d="M17.253 19.193v-7.486c0-.187-.01-.385 0-.572.03-1.081.765-1.539 1.727-1.04 1.158.603 2.306 1.248 3.454 1.882 3.683 2.028 7.375 4.045 11.057 6.072.093.052.187.094.27.146.91.572.91 1.528-.032 2.058-1.241.707-2.513 1.373-3.765 2.07-3.578 1.964-7.157 3.94-10.736 5.915-.041.02-.093.052-.134.073-1.014.53-1.852.031-1.852-1.123 0-2.662 0-5.323.01-7.995z" fill="#F9A536"/></svg>