<svg width="67" height="53" viewBox="0 0 67 53" fill="none" xmlns="http://www.w3.org/2000/svg"><g clip-path="url(#a)" filter="url(#b)" fill="#67717D"><path d="M62.709 15.512c.112-.131.178-.272.225-.393a.945.945 0 0 0-.103-.89 1.396 1.396 0 0 0-.555-.46c-2.688-1.301-5.386-2.594-8.074-3.896C47.66 6.707 41.11 3.55 34.567.384a4.844 4.844 0 0 0-.686-.281A2.016 2.016 0 0 0 33.298 0a1.25 1.25 0 0 0-.404.066 6.695 6.695 0 0 0-.658.262c-.226.103-.47.234-.715.356-8.929 4.468-17.849 8.945-26.778 13.404a1.19 1.19 0 0 0-.602.628 6.133 6.133 0 0 0-.141.337v.262c.056.16.122.29.197.403.094.14.207.253.367.366.103.074.226.15.376.215 3.459 1.667 6.88 3.39 10.311 5.068.15.075.292.159.432.28.141.122.273.282.367.46.066.121.103.243.132.365.037.16.047.309.047.459v.01c-.02 5.32-.01 10.64-.02 15.97v.02c3.855 2.819 8.113 4.655 12.803 5.573a26.26 26.26 0 0 0 5.02.496c1.766 0 3.533-.197 5.3-.6 3.948-.908 7.454-2.632 10.518-5.273l.019-.019v-.056c-.01-5.32 0-10.641-.019-15.962v-.01c0-.158.01-.327.057-.505s.131-.365.253-.515c.076-.103.17-.197.264-.272.122-.103.253-.169.376-.234a1830.1 1830.1 0 0 0 11.373-5.658 1.53 1.53 0 0 0 .32-.197.925.925 0 0 0 .216-.187zm-14.945 22.21a1.847 1.847 0 0 1-.226.524 1.82 1.82 0 0 1-.235.3 1.834 1.834 0 0 1-.367.3c-1.955 1.34-4.013 2.37-6.184 3.072a22.305 22.305 0 0 1-6.824 1.05h-.16c-3.43-.02-6.73-.76-9.86-2.108-1.71-.74-3.28-1.649-4.86-2.445a1.42 1.42 0 0 1-.357-.244 1.367 1.367 0 0 1-.3-.384 2.047 2.047 0 0 1-.113-.309 1.494 1.494 0 0 1-.047-.393v-.01c.01-4.103.01-8.205.01-12.308 0-.103.009-.197.009-.281.009-.085.009-.169.018-.281l.085-1.255 1.137.562c1.034.505 2.002.983 2.97 1.452 2.867 1.414 5.715 2.847 8.573 4.234.413.196.817.355 1.212.459.395.103.78.159 1.156.159a3.94 3.94 0 0 0 1.025-.14 4.741 4.741 0 0 0 1.053-.45c.827-.487 1.673-.843 2.434-1.227 2.726-1.359 5.452-2.726 8.178-4.085.093-.046.178-.084.253-.121.085-.038.16-.066.245-.103l1.109-.488.084 1.2c.01.075.01.15.02.234.009.084.009.178.009.29v5.294c0 2.323 0 4.646.009 6.969v.01c.01.168-.01.346-.056.524zm10.452-22.126c-.414.216-.8.413-1.185.61a25818.54 25818.54 0 0 0-22.972 11.446 2.128 2.128 0 0 1-.366.14 1.591 1.591 0 0 1-.846 0 2.13 2.13 0 0 1-.367-.14c-7.773-3.86-15.575-7.71-23.367-11.56-.094-.046-.169-.093-.235-.13a2.96 2.96 0 0 1-.178-.113l-1.316-.796 1.381-.684c1.73-.852 3.412-1.686 5.095-2.52 6.204-3.063 12.417-6.126 18.62-9.198.104-.047.216-.103.348-.14a1.454 1.454 0 0 1 .827-.029 1.8 1.8 0 0 1 .338.122 17961.29 17961.29 0 0 0 23.819 11.278c.065.038.131.066.197.103.066.038.132.066.207.103l1.475.75-1.475.758z"/><rect x="25.151" y="11.25" width="14.472" height="1.125" rx=".563"/><rect x="21.811" y="14.625" width="22.264" height="1.125" rx=".563"/><rect x="25.151" y="18" width="14.472" height="1.125" rx=".563"/></g><defs><filter id="b" x="0" y="0" width="67" height="53" filterUnits="userSpaceOnUse" color-interpolation-filters="sRGB"><feFlood flood-opacity="0" result="BackgroundImageFix"/><feColorMatrix in="SourceAlpha" values="0 0 0 0 0 0 0 0 0 0 0 0 0 0 0 0 0 0 127 0"/><feOffset dy="4"/><feGaussianBlur stdDeviation="2"/><feColorMatrix values="0 0 0 0 0 0 0 0 0 0 0 0 0 0 0 0 0 0 0.25 0"/><feBlend in2="BackgroundImageFix" result="effect1_dropShadow"/><feBlend in="SourceGraphic" in2="effect1_dropShadow" result="shape"/></filter><clipPath id="a"><path fill="#fff" transform="translate(4)" d="M0 0h59v45H0z"/></clipPath></defs></svg>