<svg width="48" height="48" viewBox="0 0 48 48" fill="none" xmlns="http://www.w3.org/2000/svg"><g clip-path="url(#a)" fill="#67717D"><path d="M32.239 18.942a671.706 671.706 0 0 1-3.188-2c-.665-.416-.923-1.006-.757-1.687.283-1.13 1.331-1.578 2.314-.963 2.538 1.578 5.067 3.18 7.614 4.75.807.498.924 1.213.765 1.927-.15.697-.765 1.071-1.63 1.071H22.96c-4.053 0-8.097 0-12.15-.008-.3 0-.616-.017-.899-.116-.707-.241-1.065-.939-.932-1.703.117-.69.774-1.204 1.581-1.204 1.973-.008 3.937 0 5.909 0h15.728c.017-.008.033-.042.042-.067zM15.736 30.154c1.04.656 2.08 1.312 3.121 1.976.824.532 1.024 1.345.541 2.176-.474.805-1.256 1.005-2.047.507-2.039-1.288-4.07-2.583-6.1-3.87-.466-.3-.932-.598-1.398-.889-.74-.473-1.04-1.146-.824-1.893.208-.706.816-1.113 1.698-1.113h26.405c.291 0 .59-.008.865.066.74.208 1.149.905 1.04 1.71-.091.69-.748 1.23-1.506 1.23H16.028c-.092 0-.183.008-.275.008-.008.034-.008.067-.017.092z"/><path d="M48 21.475c-.266-2.308-.816-4.542-1.756-6.676C43.057 7.565 37.648 2.849 30 .772 28.594.39 27.112.291 25.664.058c-.091-.016-.183-.041-.283-.058h-2.746c-.832.108-1.672.174-2.505.316-5.975 1.013-10.9 3.861-14.762 8.52-2.555 3.081-4.203 6.602-4.994 10.522-.141.739-.25 1.486-.374 2.234v4.9c.108.639.208 1.27.325 1.91.707 3.927 2.321 7.448 4.81 10.554 3.178 3.987 7.223 6.735 12.133 8.147 1.306.374 2.68.548 4.02.822.09.017.182.05.274.075h4.91c.798-.133 1.614-.233 2.405-.415 9.162-2.16 15.228-7.715 18.208-16.626.474-1.42.749-2.881.923-4.368v-5.116H48zM23.95 45.26c-11.7-.017-21.22-9.576-21.204-21.293.017-11.635 9.587-21.152 21.27-21.143 11.718.008 21.263 9.55 21.255 21.25-.017 11.685-9.579 21.194-21.32 21.186z"/></g><defs><clipPath id="a"><path fill="#fff" d="M0 0h48v48H0z"/></clipPath></defs></svg>