<svg width="190" height="43" viewBox="0 0 190 43" fill="none" xmlns="http://www.w3.org/2000/svg"><g clip-path="url(#a)"><path d="M18.585 5.041L14.016.431C5.814 3.608 0 11.496 0 20.716c0 10.14 7.06 18.744 16.612 21.101 8.825-10.654 9.344-25.712 1.973-36.776z" fill="#F9A536"/><path d="M19.727 42.227c.311 0 .519.102.83.102 4.257-1.946 7.891-5.02 10.487-9.117 2.491-3.995 3.634-8.4 3.53-12.907l-4.672-4.713c1.868 9.937-1.765 20.386-10.175 26.635z" fill="#181818"/><path d="M18.066 42.022h.103c8.93-6.351 12.77-17.415 10.28-27.659l-6.646-6.658c5.295 10.96 4.257 24.38-3.737 34.317zM40.7 25.734c-1.143 5.122-3.842 9.63-7.891 13.112-1.142 1.025-2.388 1.946-3.738 2.664 6.541-1.947 11.836-6.761 14.328-13.113l-2.7-2.663z" fill="#181818"/><path d="M39.661 25.017l-3.841-3.79c-.104 4.405-1.35 8.707-3.738 12.497-2.284 3.688-5.607 6.761-9.344 8.708.934 0 1.765-.103 2.595-.205 7.268-2.868 12.77-9.322 14.328-17.21zm22.53 4.405c-2.18-.615-3.737-1.332-4.776-2.254-1.038-.922-1.453-2.049-1.453-3.38 0-1.537.623-2.766 1.765-3.688 1.246-1.024 2.803-1.434 4.776-1.434 1.35 0 2.492.205 3.53.717 1.038.512 1.869 1.23 2.388 2.049.623.922.83 1.844.83 2.868h-2.595c0-1.127-.416-2.049-1.142-2.663-.727-.615-1.765-1.025-3.115-1.025-1.246 0-2.18.307-2.907.82-.727.512-1.038 1.331-1.038 2.253 0 .82.311 1.434 1.038 1.947.623.512 1.765 1.024 3.426 1.434 1.557.41 2.907.922 3.738 1.434.934.512 1.557 1.127 1.972 1.844.416.717.623 1.536.623 2.56 0 1.537-.623 2.767-1.869 3.689-1.245.922-2.803 1.434-4.88 1.434-1.349 0-2.595-.205-3.737-.717-1.142-.513-2.077-1.23-2.7-2.05-.622-.819-.934-1.843-.934-2.97h2.596c0 1.127.415 2.049 1.246 2.766.83.615 1.972 1.024 3.426 1.024 1.35 0 2.388-.307 3.115-.82.727-.511 1.038-1.228 1.038-2.253 0-.922-.312-1.639-1.038-2.151-.416-.512-1.661-.922-3.323-1.434zm13.289-9.117v3.38h2.7v1.844h-2.7v8.707c0 .615.105 1.025.312 1.23.208.307.623.41 1.246.41.312 0 .623-.103 1.142-.205v1.946a5.951 5.951 0 0 1-1.869.307c-1.142 0-1.868-.307-2.491-1.024-.52-.615-.83-1.537-.83-2.766v-8.707h-2.596v-1.844h2.595v-3.38h2.492v.102zm4.673 10.346c0-1.434.311-2.663.83-3.688.52-1.127 1.35-1.946 2.285-2.56 1.038-.615 2.076-.923 3.322-.923 1.973 0 3.53.615 4.672 1.947 1.246 1.331 1.765 3.073 1.765 5.326v.205a8.74 8.74 0 0 1-.83 3.688c-.52 1.127-1.246 1.946-2.284 2.561-1.039.615-2.077.922-3.427.922-1.972 0-3.53-.615-4.672-1.946-1.246-1.332-1.765-3.074-1.765-5.327v-.205h.104zm2.388.307c0 1.537.415 2.869 1.142 3.79.727.922 1.765 1.435 3.011 1.435 1.246 0 2.18-.513 3.01-1.434.728-.922 1.143-2.357 1.143-3.996 0-1.536-.415-2.765-1.142-3.79-.727-.922-1.765-1.434-3.011-1.434-1.246 0-2.18.512-2.907 1.434-.83.922-1.246 2.254-1.246 3.995zm19.415 5.225c.831 0 1.662-.308 2.284-.82.623-.512 1.039-1.127 1.039-1.946h2.284c0 .82-.312 1.536-.831 2.356a5.703 5.703 0 0 1-2.076 1.741 6.128 6.128 0 0 1-2.7.615c-1.972 0-3.53-.615-4.672-1.946-1.142-1.332-1.765-3.074-1.765-5.225v-.41c0-1.331.208-2.56.727-3.687.52-1.025 1.246-1.947 2.18-2.459.935-.614 2.077-.922 3.426-.922 1.558 0 2.908.512 3.946 1.434 1.038.922 1.661 2.152 1.661 3.688h-2.284c-.104-.922-.415-1.639-1.038-2.253a3.245 3.245 0 0 0-2.285-.922c-1.245 0-2.18.41-2.907 1.331-.726.922-1.038 2.152-1.038 3.79v.41c0 1.64.312 2.869 1.038 3.79.831.922 1.765 1.435 3.011 1.435zm12.459-4.815l-1.557 1.537v4.917h-2.492V17.846h2.492v12.088l1.35-1.537 4.464-4.61h3.011l-5.606 5.942 6.229 8.195h-2.907l-4.984-6.556zm21.181-1.229h-7.58v7.785h-3.945V18.871h12.563v3.175h-8.618v4.917h7.58v3.176zm2.076.512c0-1.434.312-2.663.831-3.79.519-1.127 1.35-1.947 2.388-2.561 1.038-.615 2.18-.922 3.634-.922 1.972 0 3.53.615 4.672 1.741 1.246 1.127 1.869 2.766 2.076 4.713v.921c0 2.152-.623 3.893-1.869 5.225-1.245 1.332-2.907 1.946-4.983 1.946-2.077 0-3.738-.614-4.984-1.946-1.246-1.332-1.869-3.073-1.869-5.327h.104zm3.842.307c0 1.332.207 2.357.726 3.074.52.717 1.246 1.024 2.181 1.024.934 0 1.661-.307 2.18-1.024.519-.717.831-1.844.831-3.38 0-1.333-.312-2.357-.831-3.074-.519-.717-1.246-1.127-2.18-1.127-.935 0-1.661.41-2.181 1.127-.415.717-.726 1.844-.726 3.38zm20.142-3.688c-.519-.102-.935-.102-1.35-.102-1.453 0-2.388.512-2.803 1.434v9.22h-3.842V23.787h3.634l.104 1.64c.727-1.332 1.869-1.947 3.219-1.947.415 0 .83.103 1.142.205l-.104 3.585zm8.202 10.86c-2.077 0-3.842-.616-5.087-1.947-1.35-1.23-1.973-2.97-1.973-5.122v-.41c0-1.434.311-2.663.83-3.79.52-1.127 1.35-1.947 2.388-2.561 1.039-.615 2.181-.922 3.53-.922 1.973 0 3.531.615 4.569 1.844 1.142 1.23 1.661 2.97 1.661 5.224v1.537h-9.137c.104.922.52 1.639 1.142 2.253.623.513 1.454.82 2.388.82 1.454 0 2.596-.512 3.427-1.537l1.869 2.05c-.623.819-1.35 1.433-2.285 1.843-1.038.512-2.18.717-3.322.717zm-.415-11.577c-.727 0-1.35.205-1.869.718-.415.512-.727 1.229-.935 2.15h5.295v-.306c0-.82-.207-1.435-.726-1.947-.416-.41-1.039-.614-1.765-.614zm13.912 1.435l2.388-4.2h4.049l-4.049 6.965L190 37.925h-4.153l-2.596-4.405-2.491 4.405h-4.153l4.256-7.17-4.049-6.966h4.049l2.492 4.2z" fill="#181818"/></g><defs><clipPath id="a"><path fill="#fff" transform="translate(0 .432)" d="M0 0h190v42H0z"/></clipPath></defs></svg>