<svg width="190" height="42" viewBox="0 0 190 42" fill="none" xmlns="http://www.w3.org/2000/svg"><g clip-path="url(#a)"><path d="M18.585 4.61L14.016 0C5.814 3.176 0 11.063 0 20.283c0 10.141 7.06 18.746 16.612 21.102 8.825-10.653 9.344-25.712 1.973-36.775z" fill="#F9A536"/><path d="M19.727 41.795c.311 0 .519.102.83.102 4.257-1.946 7.891-5.019 10.487-9.117 2.491-3.995 3.634-8.4 3.53-12.907l-4.672-4.712c1.868 9.937-1.765 20.385-10.175 26.634z" fill="#fff"/><path d="M18.066 41.59h.104c8.928-6.351 12.77-17.414 10.278-27.658l-6.645-6.659c5.296 10.961 4.257 24.38-3.737 34.317zM40.7 25.302c-1.143 5.122-3.842 9.63-7.891 13.112-1.142 1.025-2.388 1.947-3.738 2.664 6.541-1.947 11.836-6.761 14.328-13.112l-2.7-2.664z" fill="#fff"/><path d="M39.661 24.585l-3.841-3.79c-.104 4.405-1.35 8.707-3.738 12.498-2.284 3.688-5.607 6.76-9.344 8.707.934 0 1.765-.102 2.595-.205 7.268-2.868 12.77-9.322 14.328-17.21zm22.53 4.405c-2.18-.614-3.737-1.331-4.776-2.253-1.038-.922-1.453-2.05-1.453-3.38 0-1.537.623-2.767 1.765-3.689 1.246-1.024 2.803-1.434 4.776-1.434 1.35 0 2.492.205 3.53.717 1.038.512 1.869 1.23 2.388 2.049.623.922.83 1.844.83 2.868h-2.595c0-1.127-.415-2.048-1.142-2.663-.727-.615-1.765-1.024-3.115-1.024-1.246 0-2.18.307-2.907.819-.727.512-1.038 1.332-1.038 2.254 0 .82.311 1.434 1.038 1.946.623.512 1.765 1.024 3.426 1.434 1.558.41 2.907.922 3.738 1.434.934.512 1.557 1.127 1.973 1.844.415.717.623 1.537.623 2.561 0 1.537-.623 2.766-1.87 3.688-1.245.922-2.803 1.434-4.88 1.434-1.349 0-2.595-.205-3.737-.717s-2.076-1.23-2.7-2.049c-.622-.82-.934-1.844-.934-2.97h2.596c0 1.126.415 2.048 1.246 2.765.83.615 1.973 1.025 3.426 1.025 1.35 0 2.388-.308 3.115-.82.727-.512 1.038-1.229 1.038-2.253 0-.922-.311-1.64-1.038-2.152-.415-.512-1.661-.922-3.322-1.434zm13.29-9.117v3.38h2.7v1.845h-2.7v8.707c0 .614.104 1.024.312 1.23.207.307.622.409 1.245.409.312 0 .623-.102 1.142-.205v1.946a5.95 5.95 0 0 1-1.868.308c-1.142 0-1.87-.308-2.492-1.025-.52-.614-.83-1.536-.83-2.766v-8.707h-2.596v-1.844h2.595v-3.38h2.492v.102zm4.672 10.347c0-1.435.312-2.664.83-3.688.52-1.127 1.35-1.947 2.285-2.561 1.038-.615 2.076-.922 3.322-.922 1.973 0 3.53.614 4.672 1.946 1.246 1.332 1.766 3.073 1.766 5.327v.205a8.739 8.739 0 0 1-.831 3.687c-.52 1.127-1.246 1.947-2.284 2.561-1.038.615-2.077.922-3.426.922-1.973 0-3.53-.614-4.673-1.946-1.246-1.332-1.765-3.073-1.765-5.327v-.205h.104zm2.388.307c0 1.536.415 2.868 1.142 3.79.727.922 1.765 1.434 3.011 1.434 1.246 0 2.18-.512 3.011-1.434.727-.922 1.142-2.356 1.142-3.995 0-1.537-.415-2.766-1.142-3.79-.727-.922-1.765-1.435-3.01-1.435-1.247 0-2.181.513-2.908 1.434-.83.922-1.246 2.254-1.246 3.996zm19.415 5.224a3.66 3.66 0 0 0 2.285-.82c.623-.512 1.038-1.126 1.038-1.946h2.284c0 .82-.311 1.537-.831 2.356a5.703 5.703 0 0 1-2.076 1.742 6.126 6.126 0 0 1-2.7.614c-1.972 0-3.53-.614-4.672-1.946-1.142-1.332-1.765-3.073-1.765-5.224v-.41c0-1.332.208-2.561.727-3.688.52-1.024 1.246-1.946 2.18-2.458.935-.615 2.077-.922 3.427-.922 1.557 0 2.907.512 3.945 1.434 1.038.922 1.661 2.15 1.661 3.688h-2.284c-.104-.922-.415-1.64-1.038-2.254a3.244 3.244 0 0 0-2.284-.922c-1.246 0-2.18.41-2.907 1.332-.727.922-1.039 2.15-1.039 3.79v.41c0 1.639.312 2.868 1.038 3.79.831.922 1.766 1.434 3.011 1.434zm12.459-4.815l-1.557 1.537v4.917h-2.492V17.415h2.492v12.087l1.35-1.536 4.464-4.61h3.011l-5.606 5.941 6.229 8.196h-2.907l-4.984-6.557zm21.181-1.229h-7.579v7.786h-3.946V18.439h12.563v3.176h-8.617v4.917h7.579v3.175zm2.076.513c0-1.435.312-2.664.831-3.79.519-1.128 1.35-1.947 2.388-2.562 1.038-.614 2.18-.922 3.634-.922 1.973 0 3.53.615 4.672 1.742 1.246 1.127 1.869 2.766 2.076 4.712v.922c0 2.151-.622 3.893-1.868 5.224-1.246 1.332-2.907 1.947-4.984 1.947-2.076 0-3.738-.615-4.984-1.947-1.245-1.331-1.868-3.073-1.868-5.326h.103zm3.842.307c0 1.331.208 2.356.727 3.073.519.717 1.246 1.024 2.18 1.024.934 0 1.661-.307 2.18-1.024.519-.717.831-1.844.831-3.38 0-1.332-.312-2.357-.831-3.074-.519-.717-1.246-1.127-2.18-1.127-.934 0-1.661.41-2.18 1.127-.416.717-.727 1.844-.727 3.38zm20.142-3.688c-.519-.103-.935-.103-1.35-.103-1.453 0-2.388.513-2.803 1.434v9.22h-3.842V23.356h3.634l.104 1.639c.727-1.332 1.869-1.946 3.219-1.946.415 0 .83.102 1.142.204l-.104 3.586zm8.202 10.858c-2.076 0-3.841-.614-5.087-1.946-1.35-1.23-1.973-2.97-1.973-5.122v-.41c0-1.434.312-2.663.831-3.79.519-1.127 1.349-1.946 2.388-2.56 1.038-.615 2.18-.923 3.53-.923 1.972 0 3.53.615 4.568 1.844 1.142 1.23 1.661 2.97 1.661 5.225v1.536h-9.136c.103.922.519 1.64 1.142 2.254.623.512 1.453.82 2.388.82 1.453 0 2.595-.513 3.426-1.537l1.869 2.048c-.623.82-1.35 1.435-2.284 1.844-1.039.513-2.181.718-3.323.718zm-.415-11.575c-.727 0-1.35.205-1.869.717-.415.512-.727 1.23-.934 2.151h5.295v-.307c0-.82-.208-1.434-.727-1.947-.415-.41-1.038-.614-1.765-.614zm13.912 1.434l2.388-4.2h4.049l-4.049 6.966 4.257 7.17h-4.153l-2.596-4.404-2.491 4.404h-4.153l4.257-7.17-4.05-6.966h4.05l2.491 4.2z" fill="#fff"/></g><defs><clipPath id="a"><path fill="#fff" d="M0 0h190v42H0z"/></clipPath></defs></svg>