<svg width="22" height="22" viewBox="0 0 22 22" fill="none" xmlns="http://www.w3.org/2000/svg"><g clip-path="url(#a)"><path d="M12.897 9.575a3.564 3.564 0 0 0 1.635-3.006C14.532 4.597 12.96 3 11.015 3 9.072 3 7.468 4.597 7.468 6.57c0 1.252.648 2.38 1.635 3.005C6.82 9.795 5 11.767 5 14.147v3.788l.247.094c2.375.752 4.442 1.002 6.139 1.002 3.3 0 5.244-.97 5.367-1.033l.247-.125h.03v-3.726c-.03-2.38-1.82-4.352-4.133-4.572z" fill="#67717D"/></g><defs><clipPath id="a"><path fill="#fff" transform="translate(5 3)" d="M0 0h12v16H0z"/></clipPath></defs></svg>