<svg width="22" height="22" viewBox="0 0 22 22" fill="none" xmlns="http://www.w3.org/2000/svg"><g clip-path="url(#a)"><path d="M17 15.234a.62.62 0 0 1-.184.553L14.972 17.6a.961.961 0 0 1-.338.246c-.123.062-.277.093-.4.123h-.277c-.184 0-.46-.03-.86-.092-.4-.061-.86-.215-1.444-.43a13.65 13.65 0 0 1-1.906-1.045c-.707-.461-1.475-1.107-2.274-1.936-.646-.646-1.168-1.23-1.598-1.813-.43-.584-.769-1.107-1.014-1.599-.246-.491-.461-.922-.584-1.321-.093-.4-.185-.738-.216-1.045C4 8.41 4 8.165 4 8.012v-.277a2.71 2.71 0 0 1 .123-.4c.061-.122.154-.245.246-.337l1.844-1.844A.734.734 0 0 1 6.643 5a.52.52 0 0 1 .307.092.935.935 0 0 1 .246.246l1.475 2.797c.093.153.093.307.062.491-.03.185-.123.308-.246.43l-.676.677c-.03.03-.03.061-.062.092 0 .03-.03.062-.03.092.03.185.123.4.246.646.122.215.276.491.522.799.215.307.553.676.983 1.106.4.43.769.738 1.107.983.307.246.584.4.799.523.215.123.369.184.492.184l.184.031c.03 0 .062 0 .092-.03.03 0 .062-.031.092-.062l.8-.8c.153-.153.368-.214.583-.214.154 0 .277.03.37.092l2.642 1.567c.215.185.308.308.369.492z" fill="#67717D"/></g><defs><clipPath id="a"><path fill="#fff" transform="translate(4 5)" d="M0 0h13v13H0z"/></clipPath></defs></svg>