<svg width="22" height="22" viewBox="0 0 22 22" fill="none" xmlns="http://www.w3.org/2000/svg"><g clip-path="url(#a)"><path d="M18.474 4h-3.53c-.819 0-1.976.48-2.57 1.075l-5.93 5.94a1.52 1.52 0 0 0 0 2.149l4.406 4.412a1.515 1.515 0 0 0 2.146 0l5.93-5.94C19.52 11.042 20 9.883 20 9.063V5.499C20 4.679 19.321 4 18.474 4zM16.47 9.034a1.49 1.49 0 0 1-1.496-1.499 1.49 1.49 0 0 1 1.496-1.499 1.49 1.49 0 0 1 1.497 1.5c0 .82-.678 1.498-1.497 1.498zM4.242 12.428l5.393 5.402a1.502 1.502 0 0 1-1.779-.254l-4.405-4.44a1.52 1.52 0 0 1 0-2.15l5.93-5.94C9.946 4.481 11.104 4 11.923 4l-7.681 7.721a.496.496 0 0 0 0 .707z" fill="#67717D"/></g><defs><clipPath id="a"><path fill="#fff" transform="translate(3 4)" d="M0 0h17v14H0z"/></clipPath></defs></svg>